HIERARCHY
ROOT Hips
{
	OFFSET 0.000000 0.000000 0.000000
	CHANNELS 6 Xposition Yposition Zposition Zrotation Yrotation Xrotation 
	JOINT LHipJoint
	{
		OFFSET 0.000000 0.000000 0.000000
		CHANNELS 3 Zrotation Yrotation Xrotation
		JOINT LeftUpLeg
		{
			OFFSET 1.363060 -1.794630 0.839290
			CHANNELS 3 Zrotation Yrotation Xrotation
			JOINT LeftLeg
			{
				OFFSET 2.448110 -6.726130 0.000000
				CHANNELS 3 Zrotation Yrotation Xrotation
				JOINT LeftFoot
				{
					OFFSET 2.562200 -7.039590 0.000000
					CHANNELS 3 Zrotation Yrotation Xrotation
					JOINT LeftToeBase
					{
						OFFSET 0.157640 -0.433110 2.322550
						CHANNELS 3 Zrotation Yrotation Xrotation
						End Site
						{
							OFFSET 0.000000 0.000000 0.000000
						}
					}
				}
			}
		}
	}
	JOINT RHipJoint
	{
		OFFSET 0.000000 0.000000 0.000000
		CHANNELS 3 Zrotation Yrotation Xrotation
		JOINT RightUpLeg
		{
			OFFSET -1.305520 -1.794630 0.839290
			CHANNELS 3 Zrotation Yrotation Xrotation
			JOINT RightLeg
			{
				OFFSET -2.542530 -6.985550 0.000000
				CHANNELS 3 Zrotation Yrotation Xrotation
				JOINT RightFoot
				{
					OFFSET -2.568260 -7.056230 0.000000
					CHANNELS 3 Zrotation Yrotation Xrotation
					JOINT RightToeBase
					{
						OFFSET -0.164730 -0.452590 2.363150
						CHANNELS 3 Zrotation Yrotation Xrotation
						End Site
						{
							OFFSET 0.000000 0.000000 0.000000
						}
					}
				}
			}
		}
	}
}
MOTION
Frames: 19
Frame Time: 0.008333
-1.567825 16.509557 -1.297615 38.597320 76.442715 55.189229 -10.895724 5.511733 0.318829 -3.269454 15.157841 -5.707933 -0.905492 1.372773 28.030798 0.746123 -2.049634 22.188470 -1.296100 -0.000001 -76.861500 8.913359 -1.302922 6.873111 12.146397 11.723358 -45.842038 2.069275 -0.719012 22.090206 -0.645451 -1.334599 -4.400057 179.400799 -0.000000 -7.433200
-1.391680 16.434843 -1.207460 36.884605 76.002721 53.571789 -10.941858 5.439579 0.365632 -2.805332 14.512795 -6.366398 -0.744601 1.457007 30.535489 0.785019 -3.313282 23.004112 -1.954600 -0.000001 -75.007800 8.824222 -1.195888 7.146039 11.535055 14.009220 -47.147441 1.620820 -1.125596 26.575705 -0.904396 -2.126429 -5.810814 179.440900 0.000000 -13.168400
-1.224152 16.371254 -1.113996 35.353309 75.649195 52.094714 -10.990600 5.333724 0.401997 -2.273476 13.757453 -7.093795 -0.588545 1.540265 33.108786 0.826722 -4.568528 23.716963 -2.629399 0.000000 -72.347700 8.728343 -1.068703 7.358395 11.093347 16.098882 -48.033860 1.228837 -1.425076 30.367738 -1.184958 -3.084935 -7.133997 179.491600 -0.000000 -16.635500
-1.065137 16.319874 -1.016935 34.076438 75.380047 50.835611 -11.035699 5.202300 0.436547 -1.713139 12.888289 -7.902972 -0.441461 1.624233 35.714646 0.867713 -5.698598 24.254026 -3.251100 -0.000000 -69.051200 8.628880 -0.937604 7.506463 10.846877 17.910384 -48.512353 0.918670 -1.632371 33.436896 -1.477787 -4.120895 -8.492390 179.577800 -0.000000 -18.792300
-0.914446 16.281083 -0.916015 33.123389 75.187002 49.867809 -11.071185 5.053822 0.475071 -1.163958 11.915189 -8.805985 -0.304601 1.711273 38.325265 0.904054 -6.593902 24.551346 -3.747800 0.000000 -65.161700 8.533997 -0.814451 7.590589 10.787879 19.388078 -48.611579 0.696464 -1.765568 35.793767 -1.772963 -5.158002 -9.931654 179.716100 0.000000 -20.247100
-0.771564 16.254663 -0.811383 32.517962 75.059930 49.220597 -11.095140 4.894019 0.521129 -0.653123 10.855893 -9.802484 -0.175178 1.801346 40.889820 0.937610 -7.144484 24.626961 -4.057700 0.000000 -61.522700 8.450185 -0.707489 7.613140 10.895003 20.507577 -48.364047 0.556979 -1.840114 37.466176 -2.057854 -6.129118 -11.416019 179.908199 0.000000 -21.145200
-0.635962 16.240005 -0.703210 32.278384 74.982718 48.915734 -11.104398 4.727483 0.575587 -0.206404 9.735753 -10.889961 -0.050690 1.893879 43.382443 0.968549 -7.282599 24.467113 -4.139500 0.000000 -58.129899 8.386191 -0.621387 7.577478 11.132473 21.254869 -47.812903 0.491000 -1.868209 38.504633 -2.315763 -6.957885 -12.892696 -179.855100 0.000000 -21.742000
-0.506859 16.236254 -0.592237 32.355708 74.936204 48.909423 -11.100440 4.555569 0.636164 0.168948 8.589982 -12.057566 0.071137 1.986784 45.770124 1.000232 -6.967862 24.087189 -3.976900 0.000000 -55.142500 8.344817 -0.559509 7.488797 11.470580 21.644917 -47.000724 0.487978 -1.859013 38.965138 -2.527518 -7.575833 -14.269558 -179.600200 -0.000000 -22.093300
-0.383352 16.242410 -0.479390 32.654320 74.894816 49.114921 -11.086020 4.378056 0.700272 0.471213 7.453185 -13.285907 0.191312 2.076322 48.009110 1.039213 -6.184407 23.537527 -3.577800 -0.000000 -52.932700 8.325658 -0.523336 7.354143 11.881111 21.713516 -45.974939 0.537353 -1.819942 38.914852 -2.673608 -7.923751 -15.448019 -179.363800 0.000000 -22.245300
-0.264609 16.257454 -0.365713 33.042646 74.827935 49.410174 -11.064791 4.194682 0.763315 0.705175 6.366028 -14.556325 0.308206 2.160036 50.069348 1.090129 -4.954743 22.833086 -2.968900 -0.000000 -51.328800 8.325363 -0.512558 7.183670 12.337679 21.516384 -44.786370 0.628883 -1.757454 38.432187 -2.738173 -7.961887 -16.343464 -179.183300 0.000000 -22.292500
-0.149826 16.280410 -0.252202 33.356949 74.700676 49.643784 -11.041536 4.005698 0.821202 0.878757 5.366512 -15.848665 0.418688 2.236005 51.919515 1.157929 -3.328134 21.997172 -2.193200 0.000000 -50.165000 8.337155 -0.525116 6.991161 12.816790 21.130321 -43.486207 0.752212 -1.677231 37.602296 -2.712742 -7.680379 -16.893609 -179.086200 -0.000000 -22.334900
-0.038366 16.310413 -0.139742 33.423504 74.476870 49.656088 -11.021274 3.812055 0.870210 1.002398 4.486627 -17.143052 0.518598 2.303387 53.530737 1.246611 -1.380049 21.057863 -1.304700 0.000000 -49.260700 8.351949 -0.557154 6.792869 13.298452 20.647993 -42.121411 0.896785 -1.584256 36.510861 -2.598769 -7.103933 -17.067069 -179.082600 0.000000 -22.470300
0.070228 16.346677 -0.028926 33.092431 74.119561 49.312339 -11.007644 3.616018 0.908066 1.084875 3.747559 -18.422220 0.603627 2.362192 54.879570 1.358183 0.794622 20.047730 -0.361700 0.000000 -48.439400 8.360891 -0.603238 6.606588 13.763930 20.168082 -40.733268 1.051819 -1.482794 35.238851 -2.407451 -6.287247 -16.865446 -179.163000 -0.000000 -22.762300
0.176135 16.388616 0.079927 32.263857 73.594818 48.524442 -11.001739 3.421135 0.932025 1.135347 3.161493 -19.670751 0.669846 2.414068 55.955622 1.490240 3.083295 18.980370 0.577700 0.000000 -47.290000 8.357028 -0.656789 6.448396 14.200325 19.783953 -39.349108 1.207469 -1.376315 33.853415 -2.157484 -5.305660 -16.317820 -179.303600 0.000000 -23.217300
0.279385 16.435699 0.186949 30.922367 72.872210 47.287351 -10.999855 3.231672 0.942590 1.155194 2.718870 -20.873098 0.715077 2.459022 56.745698 1.639929 5.383486 17.909769 1.467700 -0.000000 -45.888900 8.338706 -0.710122 6.330702 14.593720 19.569012 -37.987636 1.355186 -1.267365 32.406553 -1.871220 -4.240377 -15.476237 -179.474300 -0.000000 -23.804400
0.379798 16.487480 0.292532 29.135556 71.929823 45.671148 -10.993887 3.052161 0.940126 1.143074 2.398310 -22.013211 0.738720 2.496806 57.248440 1.800702 7.600655 16.871788 2.275000 -0.000000 -44.188700 8.309870 -0.755973 6.259350 14.934743 19.565731 -36.652253 1.489421 -1.157601 30.929196 -1.570316 -3.164419 -14.405961 -179.647100 0.000000 -24.476800
0.477011 16.543557 0.397288 27.032799 70.758410 43.799268 -10.973397 2.886310 0.924974 1.095465 2.169229 -23.074061 0.741813 2.526343 57.471607 1.963521 9.654988 15.881383 2.977200 0.000000 -42.094400 8.278670 -0.789084 6.233171 15.218200 19.782861 -35.331584 1.607714 -1.047985 29.432026 -1.272551 -2.134584 -13.172199 -179.801500 0.000000 -25.164100
0.570636 16.603426 0.501976 24.787877 69.362278 41.832524 -10.927134 2.736151 0.899855 1.002042 1.988121 -24.037419 0.727111 2.544075 57.422634 2.120707 11.497676 14.963296 3.568400 0.000000 -39.798900 8.257167 -0.806933 6.243844 15.438067 20.191341 -34.008658 1.710004 -0.939148 27.913729 -0.989507 -1.182361 -11.836328 -179.925900 -0.000000 -25.824400
0.660327 16.666578 0.607493 22.583707 67.759536 39.936306 -10.845702 2.602406 0.870645 0.844568 1.802923 -24.890150 0.698279 2.545028 57.111730 2.265839 13.105179 14.132550 4.053600 -0.000000 -37.564900 8.259390 -0.810260 6.277562 15.584996 20.727344 -32.669602 1.797808 -0.831484 26.369334 -0.726022 -0.309786 -10.454919 179.984400 0.000000 -26.505000
